<svg xmlns="http://www.w3.org/2000/svg" viewBox="0 0 1080 1080"><defs><style>.cls-1{fill:#fff;}</style></defs><title>instagram_white1</title><g id="Réteg_2" data-name="Réteg 2"><g id="Réteg_1" data-name="Réteg 1"><path class="cls-1" d="M540,30a510.14,510.14,0,0,1,198.51,979.93,510.14,510.14,0,0,1-397-939.86A506.75,506.75,0,0,1,540,30m0-30C241.77,0,0,241.77,0,540s241.77,540,540,540,540-241.77,540-540S838.23,0,540,0Z"/><path class="cls-1" d="M540,412.7A128.37,128.37,0,1,0,668.39,541.1,128.39,128.39,0,0,0,540,412.7Zm0,211.73a83.35,83.35,0,1,1,83.36-83.33A83.34,83.34,0,0,1,540,624.43Zm131.2-246.8a30,30,0,1,0,30,30A30,30,0,0,0,671.21,377.63Zm0,0a30,30,0,1,0,30,30A30,30,0,0,0,671.21,377.63ZM540,412.7A128.37,128.37,0,1,0,668.39,541.1,128.39,128.39,0,0,0,540,412.7Zm0,211.73a83.35,83.35,0,1,1,83.36-83.33A83.34,83.34,0,0,1,540,624.43Zm0-211.73A128.37,128.37,0,1,0,668.39,541.1,128.39,128.39,0,0,0,540,412.7Zm0,211.73a83.35,83.35,0,1,1,83.36-83.33A83.34,83.34,0,0,1,540,624.43Zm131.2-246.8a30,30,0,1,0,30,30A30,30,0,0,0,671.21,377.63Zm0,0a30,30,0,1,0,30,30A30,30,0,0,0,671.21,377.63ZM540,412.7A128.37,128.37,0,1,0,668.39,541.1,128.39,128.39,0,0,0,540,412.7Zm0,211.73a83.35,83.35,0,1,1,83.36-83.33A83.34,83.34,0,0,1,540,624.43Zm0-211.73A128.37,128.37,0,1,0,668.39,541.1,128.39,128.39,0,0,0,540,412.7Zm0,211.73a83.35,83.35,0,1,1,83.36-83.33A83.34,83.34,0,0,1,540,624.43Zm131.2-246.8a30,30,0,1,0,30,30A30,30,0,0,0,671.21,377.63Zm0,0a30,30,0,1,0,30,30A30,30,0,0,0,671.21,377.63ZM540,412.7A128.37,128.37,0,1,0,668.39,541.1,128.39,128.39,0,0,0,540,412.7Zm0,211.73a83.35,83.35,0,1,1,83.36-83.33A83.34,83.34,0,0,1,540,624.43Zm0-211.73A128.37,128.37,0,1,0,668.39,541.1,128.39,128.39,0,0,0,540,412.7Zm0,211.73a83.35,83.35,0,1,1,83.36-83.33A83.34,83.34,0,0,1,540,624.43Zm131.2-246.8a30,30,0,1,0,30,30A30,30,0,0,0,671.21,377.63Zm0,0a30,30,0,1,0,30,30A30,30,0,0,0,671.21,377.63ZM540,412.7A128.37,128.37,0,1,0,668.39,541.1,128.39,128.39,0,0,0,540,412.7Zm0,211.73a83.35,83.35,0,1,1,83.36-83.33A83.34,83.34,0,0,1,540,624.43Zm248.5-187.51c-1.27-26.63-5.47-44.8-11.62-60.69a127.92,127.92,0,0,0-73.14-73.12c-15.93-6.18-34.11-10.4-60.74-11.62S607.87,290,540,290s-76.4.27-103,1.49-44.78,5.44-60.69,11.62a127.92,127.92,0,0,0-73.14,73.12c-6.2,15.89-10.43,34.06-11.62,60.66S290,472.09,290,540s.3,76.39,1.49,103.07,5.45,44.76,11.62,60.66a128,128,0,0,0,73.12,73.15c15.9,6.17,34.08,10.39,60.68,11.61S472.1,790,540,790s76.39-.3,103.07-1.52,44.81-5.44,60.71-11.61a128.13,128.13,0,0,0,73.12-73.15c6.15-15.9,10.35-34.07,11.62-60.66S790,607.88,790,540,789.7,463.56,788.51,436.92ZM746.09,642c-1.11,24.37-5.2,37.59-8.62,46.39A82.94,82.94,0,0,1,690,735.84c-8.81,3.44-22,7.5-46.43,8.61-26.36,1.19-34.27,1.46-101,1.46s-74.66-.27-101-1.46c-24.38-1.11-37.63-5.2-46.43-8.61a76.87,76.87,0,0,1-28.75-18.72,77.66,77.66,0,0,1-18.72-28.73c-3.41-8.8-7.5-22-8.61-46.39-1.19-26.35-1.44-34.28-1.44-101s.25-74.63,1.44-101c1.11-24.38,5.2-37.62,8.61-46.42a82.79,82.79,0,0,1,47.47-47.45c8.8-3.44,22.05-7.5,46.43-8.64,23.05-1,32-1.35,78.59-1.41v.09c6.66,0,14.08,0,22.43,0,66.75,0,74.66.21,101,1.43,24.38,1.11,37.6,5.17,46.43,8.61a82.88,82.88,0,0,1,47.43,47.45c3.42,8.8,7.51,22,8.62,46.39,1.19,26.35,1.46,34.28,1.46,101S747.28,615.65,746.09,642Zm-74.88-264.4a30,30,0,1,0,30,30A30,30,0,0,0,671.21,377.63ZM540,412.7A128.37,128.37,0,1,0,668.39,541.1,128.39,128.39,0,0,0,540,412.7Zm0,211.73a83.35,83.35,0,1,1,83.36-83.33A83.34,83.34,0,0,1,540,624.43Zm0-211.73A128.37,128.37,0,1,0,668.39,541.1,128.39,128.39,0,0,0,540,412.7Zm0,211.73a83.35,83.35,0,1,1,83.36-83.33A83.34,83.34,0,0,1,540,624.43Zm131.2-246.8a30,30,0,1,0,30,30A30,30,0,0,0,671.21,377.63Zm0,0a30,30,0,1,0,30,30A30,30,0,0,0,671.21,377.63ZM540,412.7A128.37,128.37,0,1,0,668.39,541.1,128.39,128.39,0,0,0,540,412.7Zm0,211.73a83.35,83.35,0,1,1,83.36-83.33A83.34,83.34,0,0,1,540,624.43Zm0-211.73A128.37,128.37,0,1,0,668.39,541.1,128.39,128.39,0,0,0,540,412.7Zm0,211.73a83.35,83.35,0,1,1,83.36-83.33A83.34,83.34,0,0,1,540,624.43Zm131.2-246.8a30,30,0,1,0,30,30A30,30,0,0,0,671.21,377.63Zm0,0a30,30,0,1,0,30,30A30,30,0,0,0,671.21,377.63ZM540,412.7A128.37,128.37,0,1,0,668.39,541.1,128.39,128.39,0,0,0,540,412.7Zm0,211.73a83.35,83.35,0,1,1,83.36-83.33A83.34,83.34,0,0,1,540,624.43Zm0-211.73A128.37,128.37,0,1,0,668.39,541.1,128.39,128.39,0,0,0,540,412.7Zm0,211.73a83.35,83.35,0,1,1,83.36-83.33A83.34,83.34,0,0,1,540,624.43Zm131.2-246.8a30,30,0,1,0,30,30A30,30,0,0,0,671.21,377.63Zm0,0a30,30,0,1,0,30,30A30,30,0,0,0,671.21,377.63ZM540,412.7A128.37,128.37,0,1,0,668.39,541.1,128.39,128.39,0,0,0,540,412.7Zm0,211.73a83.35,83.35,0,1,1,83.36-83.33A83.34,83.34,0,0,1,540,624.43Zm0-211.73A128.37,128.37,0,1,0,668.39,541.1,128.39,128.39,0,0,0,540,412.7Zm0,211.73a83.35,83.35,0,1,1,83.36-83.33A83.34,83.34,0,0,1,540,624.43Zm131.2-246.8a30,30,0,1,0,30,30A30,30,0,0,0,671.21,377.63Zm0,0a30,30,0,1,0,30,30A30,30,0,0,0,671.21,377.63ZM540,412.7A128.37,128.37,0,1,0,668.39,541.1,128.39,128.39,0,0,0,540,412.7Zm0,211.73a83.35,83.35,0,1,1,83.36-83.33A83.34,83.34,0,0,1,540,624.43Z"/></g></g></svg>