<svg xmlns="http://www.w3.org/2000/svg" viewBox="0 0 1080 1080"><defs><style>.cls-1{fill:#fff;}</style></defs><title>youtube_white_1</title><g id="Réteg_2" data-name="Réteg 2"><g id="Réteg_1" data-name="Réteg 1"><path class="cls-1" d="M540,30a510.14,510.14,0,0,1,198.51,979.93,510.14,510.14,0,0,1-397-939.86A506.75,506.75,0,0,1,540,30m0-30C241.77,0,0,241.77,0,540s241.77,540,540,540,540-241.77,540-540S838.23,0,540,0Z"/><g id="g5"><path class="cls-1" d="M779.71,419.74a62.65,62.65,0,0,0-44.07-44.07C696.5,365,540,365,540,365s-156.51,0-195.64,10.29a64,64,0,0,0-44.07,44.49C290,458.87,290,540,290,540s0,81.55,10.29,120.26a62.65,62.65,0,0,0,44.07,44.07C383.91,715,540,715,540,715s156.5,0,195.64-10.29a62.69,62.69,0,0,0,44.07-44.07C790,621.55,790,540.41,790,540.41S790.4,458.87,779.71,419.74ZM488,615V465l130.15,75Z"/></g></g></g></svg>