<svg xmlns="http://www.w3.org/2000/svg" viewBox="0 0 3453.53 500"><defs><style>.cls-1,.cls-2{fill:#8d8d8d;}.cls-2{fill-rule:evenodd;}</style></defs><title>Eszköz 21</title><g id="Réteg_2" data-name="Réteg 2"><g id="Réteg_1" data-name="Réteg 1"><path class="cls-1" d="M925.63,115v33.33H832.3V385H794V148.33H700.22V115Z"/><path class="cls-1" d="M1292.72,382.5V385h-44.17l-77.92-105.42h-40V385H1092.3V115h87.92q31.65,0,53.54,10t32.91,27.92q11,17.91,11,41.66a85.53,85.53,0,0,1-7.3,35.42,76.19,76.19,0,0,1-21.87,28.12Q1234,270,1212.3,275.42ZM1130.63,247.92h43.75q31.26,0,47.29-13.55t16-38.12q0-23.75-14.8-36.25t-43.54-12.5h-48.75Z"/><path class="cls-1" d="M1494.8,372.29q-28.35-17.7-42.71-49.37t-14.38-73.75q0-46.66,17.5-77.92T1501.88,125q29.16-15,64.58-15,40.41,0,68.75,17.71t42.71,49.37q14.38,31.68,14.38,73.75,0,46.68-17.5,77.92T1628.13,375q-29.18,15-64.58,15Q1523.13,390,1494.8,372.29ZM1612.92,344q19.78-13.54,29.59-37.29t9.79-55.42q0-32.5-9.38-56.88t-28.54-38.12q-19.17-13.75-47.92-13.75-29.58,0-49.37,13.54t-29.58,37.29q-9.79,23.76-9.8,55.42,0,32.5,9.38,56.88t28.54,38.12q19.15,13.75,47.92,13.75Q1593.13,357.5,1612.92,344Z"/><path class="cls-1" d="M2014.79,125.21q22.5,10.22,33.75,28.75t11.25,43.12q0,24.6-11.46,44.59t-34.58,31.87q-23.12,11.88-56.87,11.88h-48.34V385h-38.33V115h90Q1992.29,115,2014.79,125.21Zm-11.45,113.54q16.46-14.16,16.45-40,0-25-15.21-38.13t-45.2-13.12h-50.84V252.92H1954Q1986.87,252.92,2003.34,238.75Z"/><path class="cls-1" d="M2417.71,115H2456V385h-38.33V263.75H2268.54V385h-38.33V115h38.33V231.25h149.17Z"/><path class="cls-1" d="M2649.37,385V115h38.34V385Z"/><path class="cls-1" d="M2919.37,352.5h132.5V385H2881V115h168.75v32.5H2919.37v84.17h114.17l-4.17,31.66h-110Z"/><path class="cls-1" d="M3453.53,115V385H3411L3292.28,210l-5.42-7.92a94.33,94.33,0,0,0-5.21-7.91q-4.37-6.25-7.5-11.67t-5.62-10.83V385h-36.67V115h40.42l122.08,178.75q1.66,2.5,7.09,10.21t9.16,14.16a113.5,113.5,0,0,1,6.25,12.3V115Z"/><path class="cls-2" d="M466.83,31.92H404.74q.57-6.65.91-13.4h11.93V0H46.73V18.52H60.05c.19,3.74.42,7.46.72,11.15H.6S-18.84,226.66,163,236c10.42,13.55,17.91,31.85,20.89,52.59h.07l.34,0,.2,0h.08c21.18,2.74,40.45-1.09,56.87-7.58h0c-2.82,1.09-5.68,2.08-8.56,3a120.9,120.9,0,0,1-35.42,5.33c-1.33,0-2.65,0-4-.08l.73,0c1.07,0,2.16.05,3.24.05A120.58,120.58,0,0,0,232.85,284c.72-.22,1.44-.44,2.15-.68l2.16-.72c1.21-.42,2.43-.86,3.64-1.33a6.32,6.32,0,0,0,.61-.22q2-.75,3.93-1.59l0,0c1.22-.51,2.43-1,3.63-1.6l.21-.09q5.58-2.57,11-5.67l.24-.14c1.17-.67,2.33-1.35,3.48-2.06l.21-.13q5.34-3.27,10.49-7.06l.25-.19c1.11-.8,2.2-1.63,3.29-2.48l.23-.18q3.4-2.64,6.71-5.51c1.08-.93,2.14-1.88,3.2-2.85l.27-.23c1-.95,2.07-1.91,3.08-2.88l.26-.25q3.19-3.06,6.3-6.33c.07-.09.16-.17.23-.25.38-.39.75-.79,1.12-1.18.45-.67.9-1.33,1.38-2C486.53,231.45,466.83,31.92,466.83,31.92ZM22.7,51.76H63.21c9.24,65.53,35.59,121.83,71.86,158.37C90.91,196.67,23.57,158.62,22.7,51.76ZM187,288.84l1.57.13Zm3.66.28.34,0,.5,0Zm136-75.08c37.91-35.95,65.67-93.07,75.54-160h42.58C443.83,165.62,370.42,202.17,326.62,214Z"/><path class="cls-2" d="M308.12,387.3a83.92,83.92,0,0,1-9.75-12.51c-11.13-17.39-17.95-40.8-17.95-66.57a141.52,141.52,0,0,1,2-23.8c-41.66,25.88-96.7,4.83-98.48,4.13l.52.05-.54-.05a141.81,141.81,0,0,1,1.36,19.67c0,25.77-6.82,49.18-17.95,66.57a83.92,83.92,0,0,1-9.75,12.51c-17.66,25.59-29.34,60.13-31.62,98.63H112V500H353V485.93H339.74C337.46,447.43,325.78,412.89,308.12,387.3Z"/></g></g></svg>