<svg xmlns="http://www.w3.org/2000/svg" viewBox="0 0 1434.24 250"><defs><style>.cls-1{fill:#fff;}</style></defs><title>facebook_white</title><g id="Réteg_2" data-name="Réteg 2"><g id="Réteg_1" data-name="Réteg 1"><path class="cls-1" d="M250,13.78V236.22A13.78,13.78,0,0,1,236.22,250H172.48V153.1h31.71l4.75-36.82H172.48V92.09c0-11,3.05-18.45,18.78-18.45h19V39.93a259.38,259.38,0,0,0-28.7-1.49c-28.4,0-47.85,17.56-47.85,49.82v27.05H100.78V153.1h32.94V250H13.78A13.78,13.78,0,0,1,0,236.22V13.78A13.78,13.78,0,0,1,13.78,0H236.22A13.78,13.78,0,0,1,250,13.78Z"/><path class="cls-1" d="M450,43.88h90.75V62.13h-69v56H535.5v18H471.75v76.24H450Z"/><path class="cls-1" d="M626.75,212.37,625,197.12h-.75c-6.75,9.5-19.75,18-37,18-24.5,0-37-17.25-37-34.75,0-29.24,26-45.24,72.75-45v-2.5c0-10-2.75-28-27.5-28a60.29,60.29,0,0,0-31.5,9l-5-14.5c10-6.5,24.5-10.75,39.75-10.75,37,0,46,25.25,46,49.5v45.24c0,10.5.5,20.75,2,29Zm-3.25-61.74c-24-.5-51.25,3.75-51.25,27.24,0,14.25,9.5,21,20.75,21,15.75,0,25.75-10,29.25-20.25a23,23,0,0,0,1.25-7Z"/><path class="cls-1" d="M766.5,207.87c-5.75,3-18.5,7-34.75,7-36.5,0-60.25-24.75-60.25-61.74,0-37.25,25.5-64.25,65-64.25,13,0,24.5,3.25,30.5,6.25l-5,17c-5.25-3-13.5-5.75-25.5-5.75-27.75,0-42.75,20.5-42.75,45.75,0,28,18,45.24,42,45.24a62.5,62.5,0,0,0,27-6Z"/><path class="cls-1" d="M803,155.88c.5,29.74,19.5,42,41.5,42,15.75,0,25.25-2.75,33.5-6.25l3.75,15.75c-7.75,3.5-21,7.5-40.25,7.5-37.25,0-59.5-24.5-59.5-61s21.5-65.25,56.75-65.25c39.5,0,50,34.75,50,57a83,83,0,0,1-.75,10.25Zm64.5-15.75c.25-14-5.75-35.75-30.5-35.75-22.25,0-32,20.5-33.75,35.75Z"/><path class="cls-1" d="M915,212.37c.5-8.25,1-20.5,1-31.25V34.88h21.75v76h.5C946,97.38,960,88.63,979.5,88.63c30,0,51.25,25,51,61.75,0,43.24-27.25,64.74-54.25,64.74-17.5,0-31.5-6.75-40.5-22.75H935l-1,20Zm22.75-48.5a41.19,41.19,0,0,0,1,8c4.25,15.25,17,25.75,33,25.75,23,0,36.75-18.75,36.75-46.49,0-24.25-12.5-45-36-45-15,0-29,10.25-33.5,27a43.36,43.36,0,0,0-1.25,9Z"/><path class="cls-1" d="M1167.74,150.88c0,44.74-31,64.24-60.25,64.24-32.75,0-58-24-58-62.24,0-40.5,26.5-64.25,60-64.25C1144.24,88.63,1167.74,113.88,1167.74,150.88Zm-96,1.25c0,26.49,15.25,46.49,36.75,46.49,21,0,36.75-19.75,36.75-47,0-20.5-10.25-46.5-36.25-46.5S1071.74,129.13,1071.74,152.13Z"/><path class="cls-1" d="M1305,150.88c0,44.74-31,64.24-60.25,64.24-32.75,0-58-24-58-62.24,0-40.5,26.5-64.25,60-64.25C1281.49,88.63,1305,113.88,1305,150.88Zm-96,1.25c0,26.49,15.25,46.49,36.75,46.49,21,0,36.75-19.75,36.75-47,0-20.5-10.25-46.5-36.25-46.5S1209,129.13,1209,152.13Z"/><path class="cls-1" d="M1354.49,146.88h.5c3-4.25,7.25-9.5,10.75-13.75l35.5-41.75h26.5L1381,141.13l53.25,71.24h-26.75l-41.75-58-11.25,12.49v45.5h-21.75V34.88h21.75Z"/></g></g></svg>