<svg xmlns="http://www.w3.org/2000/svg" viewBox="0 0 1464.49 250"><defs><style>.cls-1{fill:#fff;}</style></defs><title>insta</title><g id="Réteg_2" data-name="Réteg 2"><g id="Réteg_1" data-name="Réteg 1"><path class="cls-1" d="M125,61.35a64.19,64.19,0,1,0,64.19,64.2A64.19,64.19,0,0,0,125,61.35Zm0,105.86a41.67,41.67,0,1,1,41.67-41.66A41.67,41.67,0,0,1,125,167.21Zm65.6-123.39a15,15,0,1,0,15,15A15,15,0,0,0,190.61,43.82Zm0,0a15,15,0,1,0,15,15A15,15,0,0,0,190.61,43.82ZM125,61.35a64.19,64.19,0,1,0,64.19,64.2A64.19,64.19,0,0,0,125,61.35Zm0,105.86a41.67,41.67,0,1,1,41.67-41.66A41.67,41.67,0,0,1,125,167.21Zm0-105.86a64.19,64.19,0,1,0,64.19,64.2A64.19,64.19,0,0,0,125,61.35Zm0,105.86a41.67,41.67,0,1,1,41.67-41.66A41.67,41.67,0,0,1,125,167.21Zm65.6-123.39a15,15,0,1,0,15,15A15,15,0,0,0,190.61,43.82Zm0,0a15,15,0,1,0,15,15A15,15,0,0,0,190.61,43.82ZM125,61.35a64.19,64.19,0,1,0,64.19,64.2A64.19,64.19,0,0,0,125,61.35Zm0,105.86a41.67,41.67,0,1,1,41.67-41.66A41.67,41.67,0,0,1,125,167.21Zm0-105.86a64.19,64.19,0,1,0,64.19,64.2A64.19,64.19,0,0,0,125,61.35Zm0,105.86a41.67,41.67,0,1,1,41.67-41.66A41.67,41.67,0,0,1,125,167.21Zm65.6-123.39a15,15,0,1,0,15,15A15,15,0,0,0,190.61,43.82Zm0,0a15,15,0,1,0,15,15A15,15,0,0,0,190.61,43.82ZM125,61.35a64.19,64.19,0,1,0,64.19,64.2A64.19,64.19,0,0,0,125,61.35Zm0,105.86a41.67,41.67,0,1,1,41.67-41.66A41.67,41.67,0,0,1,125,167.21Zm0-105.86a64.19,64.19,0,1,0,64.19,64.2A64.19,64.19,0,0,0,125,61.35Zm0,105.86a41.67,41.67,0,1,1,41.67-41.66A41.67,41.67,0,0,1,125,167.21Zm65.6-123.39a15,15,0,1,0,15,15A15,15,0,0,0,190.61,43.82Zm0,0a15,15,0,1,0,15,15A15,15,0,0,0,190.61,43.82ZM125,61.35a64.19,64.19,0,1,0,64.19,64.2A64.19,64.19,0,0,0,125,61.35Zm0,105.86a41.67,41.67,0,1,1,41.67-41.66A41.67,41.67,0,0,1,125,167.21ZM249.26,73.46c-.64-13.31-2.74-22.4-5.82-30.35A61.48,61.48,0,0,0,229,21,61.17,61.17,0,0,0,206.87,6.55c-8-3.08-17.05-5.2-30.37-5.81S158.94,0,125,0,86.8.14,73.47.74,51.08,3.47,43.13,6.55A61.25,61.25,0,0,0,21,21,61.22,61.22,0,0,0,6.56,43.11c-3.11,8-5.22,17-5.82,30.33S0,91.05,0,125s.15,38.2.74,51.54,2.73,22.38,5.82,30.33A61.19,61.19,0,0,0,21,229a61.11,61.11,0,0,0,22.14,14.43c8,3.09,17,5.2,30.34,5.81s17.6.76,51.54.76,38.2-.15,51.54-.76,22.41-2.72,30.36-5.81a64,64,0,0,0,36.55-36.57c3.08-8,5.18-17,5.82-30.33S250,158.94,250,125,249.85,86.78,249.26,73.46ZM228,176c-.55,12.19-2.6,18.8-4.3,23.2A41.42,41.42,0,0,1,200,222.92c-4.4,1.72-11,3.75-23.22,4.3-13.18.6-17.13.74-50.51.74s-37.33-.14-50.51-.74c-12.19-.55-18.81-2.6-23.21-4.3a38.38,38.38,0,0,1-14.37-9.36,38.67,38.67,0,0,1-9.36-14.36c-1.71-4.4-3.75-11-4.31-23.2-.6-13.17-.72-17.14-.72-50.52s.12-37.32.72-50.49c.56-12.19,2.6-18.81,4.31-23.21A38.54,38.54,0,0,1,38.2,37.4a38.58,38.58,0,0,1,14.37-9.34c4.4-1.72,11-3.75,23.21-4.32,11.53-.52,16-.68,39.3-.71v0c3.33,0,7,0,11.21,0,33.38,0,37.33.11,50.51.72,12.19.56,18.8,2.59,23.22,4.31a38.78,38.78,0,0,1,14.36,9.34,38.91,38.91,0,0,1,9.36,14.38c1.7,4.4,3.75,11,4.3,23.19.6,13.18.74,17.15.74,50.5S228.64,162.83,228,176ZM190.61,43.82a15,15,0,1,0,15,15A15,15,0,0,0,190.61,43.82ZM125,61.35a64.19,64.19,0,1,0,64.19,64.2A64.19,64.19,0,0,0,125,61.35Zm0,105.86a41.67,41.67,0,1,1,41.67-41.66A41.67,41.67,0,0,1,125,167.21Zm0-105.86a64.19,64.19,0,1,0,64.19,64.2A64.19,64.19,0,0,0,125,61.35Zm0,105.86a41.67,41.67,0,1,1,41.67-41.66A41.67,41.67,0,0,1,125,167.21Zm65.6-123.39a15,15,0,1,0,15,15A15,15,0,0,0,190.61,43.82Zm0,0a15,15,0,1,0,15,15A15,15,0,0,0,190.61,43.82ZM125,61.35a64.19,64.19,0,1,0,64.19,64.2A64.19,64.19,0,0,0,125,61.35Zm0,105.86a41.67,41.67,0,1,1,41.67-41.66A41.67,41.67,0,0,1,125,167.21Zm0-105.86a64.19,64.19,0,1,0,64.19,64.2A64.19,64.19,0,0,0,125,61.35Zm0,105.86a41.67,41.67,0,1,1,41.67-41.66A41.67,41.67,0,0,1,125,167.21Zm65.6-123.39a15,15,0,1,0,15,15A15,15,0,0,0,190.61,43.82Zm0,0a15,15,0,1,0,15,15A15,15,0,0,0,190.61,43.82ZM125,61.35a64.19,64.19,0,1,0,64.19,64.2A64.19,64.19,0,0,0,125,61.35Zm0,105.86a41.67,41.67,0,1,1,41.67-41.66A41.67,41.67,0,0,1,125,167.21Zm0-105.86a64.19,64.19,0,1,0,64.19,64.2A64.19,64.19,0,0,0,125,61.35Zm0,105.86a41.67,41.67,0,1,1,41.67-41.66A41.67,41.67,0,0,1,125,167.21Zm65.6-123.39a15,15,0,1,0,15,15A15,15,0,0,0,190.61,43.82Zm0,0a15,15,0,1,0,15,15A15,15,0,0,0,190.61,43.82ZM125,61.35a64.19,64.19,0,1,0,64.19,64.2A64.19,64.19,0,0,0,125,61.35Zm0,105.86a41.67,41.67,0,1,1,41.67-41.66A41.67,41.67,0,0,1,125,167.21Zm0-105.86a64.19,64.19,0,1,0,64.19,64.2A64.19,64.19,0,0,0,125,61.35Zm0,105.86a41.67,41.67,0,1,1,41.67-41.66A41.67,41.67,0,0,1,125,167.21Zm65.6-123.39a15,15,0,1,0,15,15A15,15,0,0,0,190.61,43.82Zm0,0a15,15,0,1,0,15,15A15,15,0,0,0,190.61,43.82ZM125,61.35a64.19,64.19,0,1,0,64.19,64.2A64.19,64.19,0,0,0,125,61.35Zm0,105.86a41.67,41.67,0,1,1,41.67-41.66A41.67,41.67,0,0,1,125,167.21Z"/><path class="cls-1" d="M471.75,28.62V197.13H450V28.62Z"/><path class="cls-1" d="M511.5,108.87c0-12.5-.25-22.75-1-32.75H530l1.25,20h.5c6-11.5,20-22.75,40-22.75,16.75,0,42.75,10,42.75,51.51v72.25h-22V127.38c0-19.51-7.25-35.76-28-35.76-14.5,0-25.75,10.25-29.5,22.5a31.65,31.65,0,0,0-1.5,10.26v72.75h-22Z"/><path class="cls-1" d="M647.25,174.63c6.5,4.25,18,8.75,29,8.75,16,0,23.5-8,23.5-18,0-10.5-6.25-16.25-22.5-22.25-21.75-7.75-32-19.75-32-34.26,0-19.5,15.75-35.5,41.75-35.5,12.25,0,23,3.5,29.75,7.5l-5.5,16a47.09,47.09,0,0,0-24.75-7c-13,0-20.25,7.5-20.25,16.5,0,10,7.25,14.5,23,20.51,21,8,31.75,18.5,31.75,36.5,0,21.25-16.5,36.25-45.25,36.25-13.25,0-25.5-3.25-34-8.25Z"/><path class="cls-1" d="M775.75,41.37V76.12h31.5V92.87h-31.5v65.26c0,15,4.25,23.5,16.5,23.5a48.94,48.94,0,0,0,12.75-1.5l1,16.5c-4.25,1.75-11,3-19.5,3-10.25,0-18.5-3.25-23.75-9.25-6.25-6.5-8.5-17.25-8.5-31.5v-66H735.5V76.12h18.75v-29Z"/><path class="cls-1" d="M899,197.13l-1.75-15.25h-.75c-6.75,9.5-19.75,18-37,18-24.5,0-37-17.25-37-34.75,0-29.25,26-45.26,72.75-45v-2.5c0-10-2.75-28-27.5-28a60.29,60.29,0,0,0-31.5,9l-5-14.5c10-6.5,24.5-10.75,39.75-10.75,37,0,46,25.25,46,49.51v45.25c0,10.5.5,20.75,2,29Zm-3.25-61.75c-24-.5-51.25,3.75-51.25,27.25,0,14.25,9.5,21,20.75,21,15.75,0,25.75-10,29.25-20.25a23,23,0,0,0,1.25-7Z"/><path class="cls-1" d="M1056.74,76.12c-.5,8.75-1,18.5-1,33.25v70.26c0,27.75-5.5,44.75-17.25,55.25-11.75,11-28.75,14.5-44,14.5-14.5,0-30.5-3.5-40.25-10l5.5-16.75c8,5,20.5,9.5,35.5,9.5,22.5,0,39-11.75,39-42.25v-13.5h-.5c-6.75,11.25-19.75,20.25-38.5,20.25-30,0-51.5-25.5-51.5-59,0-41,26.75-64.26,54.5-64.26,21,0,32.5,11,37.75,21h.5l1-18.25ZM1034,123.88a31.36,31.36,0,0,0-1.25-10c-4-12.75-14.75-23.25-30.75-23.25-21,0-36,17.75-36,45.76,0,23.75,12,43.5,35.75,43.5,13.5,0,25.75-8.5,30.5-22.5a38.28,38.28,0,0,0,1.75-11.75Z"/><path class="cls-1" d="M1090.74,113.87c0-14.25-.25-26.5-1-37.75H1109l.75,23.75h1c5.5-16.25,18.75-26.5,33.5-26.5a23.8,23.8,0,0,1,6.25.75V94.87a33,33,0,0,0-7.5-.75c-15.5,0-26.5,11.75-29.5,28.26a61.92,61.92,0,0,0-1,10.25v64.5h-21.75Z"/><path class="cls-1" d="M1238.24,197.13l-1.75-15.25h-.75c-6.75,9.5-19.75,18-37,18-24.5,0-37-17.25-37-34.75,0-29.25,26-45.26,72.75-45v-2.5c0-10-2.75-28-27.5-28a60.29,60.29,0,0,0-31.5,9l-5-14.5c10-6.5,24.5-10.75,39.75-10.75,37,0,46,25.25,46,49.51v45.25c0,10.5.5,20.75,2,29ZM1235,135.38c-24-.5-51.25,3.75-51.25,27.25,0,14.25,9.5,21,20.75,21,15.75,0,25.75-10,29.25-20.25a23,23,0,0,0,1.25-7Z"/><path class="cls-1" d="M1291.74,108.87c0-12.5-.25-22.75-1-32.75H1310l1,19.5h.75c6.75-11.5,18-22.25,38-22.25,16.5,0,29,10,34.25,24.25h.5A49.85,49.85,0,0,1,1398,81.87c7.25-5.5,15.25-8.5,26.75-8.5,16,0,39.75,10.5,39.75,52.51v71.25H1443v-68.5c0-23.26-8.5-37.26-26.25-37.26-12.5,0-22.25,9.25-26,20a36.25,36.25,0,0,0-1.75,11v74.75h-21.5v-72.5c0-19.26-8.5-33.26-25.25-33.26-13.75,0-23.75,11-27.25,22a30.34,30.34,0,0,0-1.75,10.76v73h-21.5Z"/></g></g></svg>