<svg xmlns="http://www.w3.org/2000/svg" viewBox="0 0 1174.24 250"><defs><style>.cls-1{fill:#1da1f2;}</style></defs><title>twitter_1</title><g id="Réteg_2" data-name="Réteg 2"><g id="Réteg_1" data-name="Réteg 1"><g id="layer1"><path id="path3611" class="cls-1" d="M96.74,250c116.09,0,179.57-96.17,179.57-179.57q0-4.09-.18-8.16a127.87,127.87,0,0,0,31.48-32.68,125.74,125.74,0,0,1-36.24,9.94A63.31,63.31,0,0,0,299.12,4.62a126.54,126.54,0,0,1-40.07,15.32A63.16,63.16,0,0,0,151.5,77.49,179.13,179.13,0,0,1,21.41,11.55,63.16,63.16,0,0,0,41,95.81a62.69,62.69,0,0,1-28.59-7.89c0,.26,0,.52,0,.8A63.13,63.13,0,0,0,63,150.59a63,63,0,0,1-28.51,1.08,63.19,63.19,0,0,0,59,43.84,126.61,126.61,0,0,1-78.39,27,129.13,129.13,0,0,1-15-.87A178.68,178.68,0,0,0,96.75,250"/></g><path class="cls-1" d="M501.25,58.13H450V39.63H574.75v18.5h-51.5v150h-22Z"/><path class="cls-1" d="M591.5,87.13l16,61.5c3.5,13.5,6.75,26,9,38.5h.75C620,174.88,624,161.88,628,148.88l19.75-61.75h18.5L685,147.63c4.5,14.5,8,27.25,10.75,39.5h.75c2-12.25,5.25-25,9.25-39.25L723,87.13h21.75l-39,121h-20l-18.5-57.75a403.26,403.26,0,0,1-10.75-39.75H656a358,358,0,0,1-11,40l-19.5,57.5h-20L569,87.13Z"/><path class="cls-1" d="M791.25,53.13c.25,7.5-5.25,13.5-14,13.5-7.75,0-13.25-6-13.25-13.5a13.41,13.41,0,0,1,13.75-13.75C786,39.38,791.25,45.38,791.25,53.13Zm-24.5,155v-121h22v121Z"/><path class="cls-1" d="M851.74,52.38V87.13h31.5v16.75h-31.5v65.25c0,15,4.25,23.5,16.5,23.5a48.94,48.94,0,0,0,12.75-1.5l1,16.5c-4.25,1.75-11,3-19.5,3-10.25,0-18.5-3.25-23.75-9.25-6.25-6.5-8.5-17.25-8.5-31.5v-66H811.49V87.13h18.75v-29Z"/><path class="cls-1" d="M934.49,52.38V87.13H966v16.75h-31.5v65.25c0,15,4.25,23.5,16.5,23.5a48.94,48.94,0,0,0,12.75-1.5l1,16.5c-4.25,1.75-11,3-19.5,3-10.25,0-18.5-3.25-23.75-9.25-6.25-6.5-8.5-17.25-8.5-31.5v-66H894.24V87.13H913v-29Z"/><path class="cls-1" d="M1001.49,151.63c.5,29.75,19.5,42,41.5,42,15.75,0,25.25-2.75,33.5-6.25l3.75,15.75c-7.75,3.5-21,7.5-40.25,7.5-37.25,0-59.5-24.5-59.5-61s21.5-65.25,56.75-65.25c39.5,0,50,34.75,50,57a83,83,0,0,1-.75,10.25Zm64.5-15.75c.25-14-5.75-35.75-30.5-35.75-22.25,0-32,20.5-33.75,35.75Z"/><path class="cls-1" d="M1114.49,124.88c0-14.25-.25-26.5-1-37.75h19.25l.75,23.75h1c5.5-16.25,18.75-26.5,33.5-26.5a23.8,23.8,0,0,1,6.25.75v20.75a33,33,0,0,0-7.5-.75c-15.5,0-26.5,11.75-29.5,28.25a61.92,61.92,0,0,0-1,10.25v64.5h-21.75Z"/></g></g></svg>