<svg xmlns="http://www.w3.org/2000/svg" viewBox="0 0 1316.99 250"><defs><style>.cls-1{fill:#fff;}</style></defs><title>youtube_white</title><g id="Réteg_2" data-name="Réteg 2"><g id="Réteg_1" data-name="Réteg 1"><g id="g5"><path class="cls-1" d="M349.71,39.12A44.72,44.72,0,0,0,318.24,7.65C290.29,0,178.53,0,178.53,0S66.76,0,38.82,7.35A45.66,45.66,0,0,0,7.35,39.12C0,67.06,0,125,0,125s0,58.24,7.35,85.88a44.72,44.72,0,0,0,31.47,31.47C67.06,250,178.53,250,178.53,250s111.76,0,139.71-7.35a44.76,44.76,0,0,0,31.47-31.47c7.35-27.94,7.35-85.89,7.35-85.89S357.35,67.06,349.71,39.12ZM141.42,178.53V71.47L234.36,125Z"/></g><path class="cls-1" d="M503.25,212.38v-71.5L450,43.88h24.75l23.75,46.5c6.5,12.75,11.5,23,16.75,34.75h.5c4.75-11,10.5-22,17-34.75L557,43.88h24.75l-56.5,96.75v71.75Z"/><path class="cls-1" d="M690.75,150.88c0,44.75-31,64.25-60.25,64.25-32.75,0-58-24-58-62.25,0-40.5,26.5-64.25,60-64.25C667.25,88.63,690.75,113.88,690.75,150.88Zm-96,1.25c0,26.5,15.25,46.5,36.75,46.5,21,0,36.75-19.75,36.75-47,0-20.5-10.25-46.5-36.25-46.5S594.75,129.13,594.75,152.13Z"/><path class="cls-1" d="M819.75,179.38c0,12.5.25,23.5,1,33h-19.5L800,192.63h-.5a45.53,45.53,0,0,1-40,22.5c-19,0-41.75-10.5-41.75-53V91.38h22v67c0,23,7,38.5,27,38.5,14.75,0,25-10.25,29-20a32.17,32.17,0,0,0,2-11.25V91.38h22Z"/><path class="cls-1" d="M882.75,56.63V91.38h31.5v16.75h-31.5v65.25c0,15,4.25,23.5,16.5,23.5a48.94,48.94,0,0,0,12.75-1.5l1,16.5c-4.25,1.75-11,3-19.5,3-10.25,0-18.5-3.25-23.75-9.25-6.25-6.5-8.5-17.25-8.5-31.5v-66H842.5V91.38h18.75v-29Z"/><path class="cls-1" d="M1040.25,179.38c0,12.5.25,23.5,1,33h-19.5l-1.25-19.75h-.5a45.53,45.53,0,0,1-40,22.5c-19,0-41.75-10.5-41.75-53V91.38h22v67c0,23,7,38.5,27,38.5,14.75,0,25-10.25,29-20a32.17,32.17,0,0,0,2-11.25V91.38h22Z"/><path class="cls-1" d="M1075.74,212.38c.5-8.25,1-20.5,1-31.25V34.88h21.75v76h.5c7.75-13.5,21.75-22.25,41.25-22.25,30,0,51.25,25,51,61.75,0,43.25-27.25,64.75-54.25,64.75-17.5,0-31.5-6.75-40.5-22.75h-.75l-1,20Zm22.75-48.5a41.19,41.19,0,0,0,1,8c4.25,15.25,17,25.75,33,25.75,23,0,36.75-18.75,36.75-46.5,0-24.25-12.5-45-36-45-15,0-29,10.25-33.5,27a43.36,43.36,0,0,0-1.25,9Z"/><path class="cls-1" d="M1231.24,155.88c.5,29.75,19.5,42,41.5,42,15.75,0,25.25-2.75,33.5-6.25l3.75,15.75c-7.75,3.5-21,7.5-40.25,7.5-37.25,0-59.5-24.5-59.5-61s21.5-65.25,56.75-65.25c39.5,0,50,34.75,50,57a83,83,0,0,1-.75,10.25Zm64.5-15.75c.25-14-5.75-35.75-30.5-35.75-22.25,0-32,20.5-33.75,35.75Z"/></g></g></svg>