<svg xmlns="http://www.w3.org/2000/svg" xmlns:xlink="http://www.w3.org/1999/xlink" width="1920" height="1080" viewBox="0 0 1920 1080">
  <defs>
    <linearGradient id="linear-gradient" x1="1.041" y1="-0.038" x2="-0.108" y2="1.104" gradientUnits="objectBoundingBox">
      <stop offset="0"/>
      <stop offset="1" stop-color="#434343"/>
    </linearGradient>
    <clipPath id="clip-Footer_2">
      <rect width="1920" height="1080"/>
    </clipPath>
  </defs>
  <g id="Footer_2" data-name="Footer – 2" clip-path="url(#clip-Footer_2)">
    <rect width="1920" height="1080" fill="#fff"/>
    <rect id="Rectangle_9" data-name="Rectangle 9" width="1920" height="1080" fill="url(#linear-gradient)"/>
    <circle id="Ellipse_6" data-name="Ellipse 6" cx="118" cy="118" r="118" transform="translate(849 495)" fill="url(#linear-gradient)"/>
    <circle id="Ellipse_10" data-name="Ellipse 10" cx="81.5" cy="81.5" r="81.5" transform="translate(302 495)" fill="url(#linear-gradient)"/>
    <circle id="Ellipse_8" data-name="Ellipse 8" cx="232.75" cy="232.75" r="232.75" transform="translate(332.25 549.5)" fill="url(#linear-gradient)"/>
    <circle id="Ellipse_7" data-name="Ellipse 7" cx="142" cy="142" r="142" transform="translate(877 93)" fill="url(#linear-gradient)"/>
    <path id="Path_5" data-name="Path 5" d="M211.5,160.5A211.113,211.113,0,0,1,282,172.552v398.9A211.113,211.113,0,0,1,211.5,583.5C94.692,583.5,0,488.808,0,372S94.692,160.5,211.5,160.5Z" transform="translate(1638 84)" fill="url(#linear-gradient)"/>
    <path id="Path_6" data-name="Path 6" d="M1920,1080c-77.387-196.933-162.284-256.146-229-271-38.063-8.474-62.127-.712-118-19-96.9-31.716-157.411-98.561-181-128-68.311-85.252-47.628-132.2-94-200-38.29-55.98-116.625-117.877-294-137v755Z" transform="translate(-1004)" fill="url(#linear-gradient)"/>
    <circle id="Ellipse_9" data-name="Ellipse 9" cx="81.5" cy="81.5" r="81.5" transform="translate(1236 377)" fill="url(#linear-gradient)"/>
    <circle id="Ellipse_11" data-name="Ellipse 11" cx="114.5" cy="114.5" r="114.5" transform="translate(1305 190)" fill="url(#linear-gradient)"/>
    <circle id="Ellipse_12" data-name="Ellipse 12" cx="150.5" cy="150.5" r="150.5" transform="translate(1429 703)" fill="url(#linear-gradient)"/>
    <rect id="Rectangle_17" data-name="Rectangle 17" width="1920" height="1080" fill="url(#linear-gradient)"/>
    <circle id="Ellipse_13" data-name="Ellipse 13" cx="118" cy="118" r="118" transform="translate(849 495)" fill="url(#linear-gradient)"/>
    <circle id="Ellipse_14" data-name="Ellipse 14" cx="81.5" cy="81.5" r="81.5" transform="translate(302 495)" fill="url(#linear-gradient)"/>
    <circle id="Ellipse_15" data-name="Ellipse 15" cx="232.75" cy="232.75" r="232.75" transform="translate(332.25 549.5)" fill="url(#linear-gradient)"/>
    <circle id="Ellipse_16" data-name="Ellipse 16" cx="142" cy="142" r="142" transform="translate(877 93)" fill="url(#linear-gradient)"/>
    <path id="Path_9" data-name="Path 9" d="M211.5,160.5A211.113,211.113,0,0,1,282,172.552v398.9A211.113,211.113,0,0,1,211.5,583.5C94.692,583.5,0,488.808,0,372S94.692,160.5,211.5,160.5Z" transform="translate(1638 84)" fill="url(#linear-gradient)"/>
    <path id="Path_10" data-name="Path 10" d="M1920,1080c-77.387-196.933-162.284-256.146-229-271-38.063-8.474-62.127-.712-118-19-96.9-31.716-157.411-98.561-181-128-68.311-85.252-47.628-132.2-94-200-38.29-55.98-116.625-117.877-294-137v755Z" transform="translate(-1004)" fill="url(#linear-gradient)"/>
    <circle id="Ellipse_17" data-name="Ellipse 17" cx="81.5" cy="81.5" r="81.5" transform="translate(1236 377)" fill="url(#linear-gradient)"/>
    <circle id="Ellipse_18" data-name="Ellipse 18" cx="114.5" cy="114.5" r="114.5" transform="translate(1305 190)" fill="url(#linear-gradient)"/>
    <circle id="Ellipse_19" data-name="Ellipse 19" cx="150.5" cy="150.5" r="150.5" transform="translate(1429 703)" fill="url(#linear-gradient)"/>
    <rect id="Rectangle_18" data-name="Rectangle 18" width="1920" height="1080" fill="url(#linear-gradient)"/>
    <circle id="Ellipse_20" data-name="Ellipse 20" cx="118" cy="118" r="118" transform="translate(849 495)" fill="url(#linear-gradient)"/>
    <circle id="Ellipse_21" data-name="Ellipse 21" cx="81.5" cy="81.5" r="81.5" transform="translate(302 495)" fill="url(#linear-gradient)"/>
    <circle id="Ellipse_22" data-name="Ellipse 22" cx="232.75" cy="232.75" r="232.75" transform="translate(332.25 549.5)" fill="url(#linear-gradient)"/>
    <circle id="Ellipse_23" data-name="Ellipse 23" cx="142" cy="142" r="142" transform="translate(877 93)" fill="url(#linear-gradient)"/>
    <path id="Path_11" data-name="Path 11" d="M211.5,160.5A211.113,211.113,0,0,1,282,172.552v398.9A211.113,211.113,0,0,1,211.5,583.5C94.692,583.5,0,488.808,0,372S94.692,160.5,211.5,160.5Z" transform="translate(1638 84)" fill="url(#linear-gradient)"/>
    <path id="Path_12" data-name="Path 12" d="M1920,1080c-77.387-196.933-162.284-256.146-229-271-38.063-8.474-62.127-.712-118-19-96.9-31.716-157.411-98.561-181-128-68.311-85.252-47.628-132.2-94-200-38.29-55.98-116.625-117.877-294-137v755Z" transform="translate(-1004)" fill="url(#linear-gradient)"/>
    <circle id="Ellipse_24" data-name="Ellipse 24" cx="81.5" cy="81.5" r="81.5" transform="translate(1236 377)" fill="url(#linear-gradient)"/>
    <circle id="Ellipse_25" data-name="Ellipse 25" cx="114.5" cy="114.5" r="114.5" transform="translate(1305 190)" fill="url(#linear-gradient)"/>
    <circle id="Ellipse_26" data-name="Ellipse 26" cx="150.5" cy="150.5" r="150.5" transform="translate(1429 703)" fill="url(#linear-gradient)"/>
    <rect id="Rectangle_19" data-name="Rectangle 19" width="1920" height="1080" fill="url(#linear-gradient)"/>
    <circle id="Ellipse_27" data-name="Ellipse 27" cx="118" cy="118" r="118" transform="translate(849 495)" fill="url(#linear-gradient)"/>
    <circle id="Ellipse_28" data-name="Ellipse 28" cx="81.5" cy="81.5" r="81.5" transform="translate(302 495)" fill="url(#linear-gradient)"/>
    <circle id="Ellipse_29" data-name="Ellipse 29" cx="232.75" cy="232.75" r="232.75" transform="translate(332.25 549.5)" fill="url(#linear-gradient)"/>
    <circle id="Ellipse_30" data-name="Ellipse 30" cx="142" cy="142" r="142" transform="translate(877 93)" fill="url(#linear-gradient)"/>
    <path id="Path_13" data-name="Path 13" d="M211.5,160.5A211.113,211.113,0,0,1,282,172.552v398.9A211.113,211.113,0,0,1,211.5,583.5C94.692,583.5,0,488.808,0,372S94.692,160.5,211.5,160.5Z" transform="translate(1638 84)" fill="url(#linear-gradient)"/>
    <path id="Path_14" data-name="Path 14" d="M1920,1080c-77.387-196.933-162.284-256.146-229-271-38.063-8.474-62.127-.712-118-19-96.9-31.716-157.411-98.561-181-128-68.311-85.252-47.628-132.2-94-200-38.29-55.98-116.625-117.877-294-137v755Z" transform="translate(-1004)" fill="url(#linear-gradient)"/>
    <circle id="Ellipse_31" data-name="Ellipse 31" cx="81.5" cy="81.5" r="81.5" transform="translate(1236 377)" fill="url(#linear-gradient)"/>
    <circle id="Ellipse_32" data-name="Ellipse 32" cx="114.5" cy="114.5" r="114.5" transform="translate(1305 190)" fill="url(#linear-gradient)"/>
    <circle id="Ellipse_33" data-name="Ellipse 33" cx="150.5" cy="150.5" r="150.5" transform="translate(1429 703)" fill="url(#linear-gradient)"/>
    <rect id="Rectangle_24" data-name="Rectangle 24" width="1920" height="1080" fill="url(#linear-gradient)"/>
    <circle id="Ellipse_48" data-name="Ellipse 48" cx="118" cy="118" r="118" transform="translate(849 495)" fill="url(#linear-gradient)"/>
    <circle id="Ellipse_49" data-name="Ellipse 49" cx="81.5" cy="81.5" r="81.5" transform="translate(302 495)" fill="url(#linear-gradient)"/>
    <circle id="Ellipse_50" data-name="Ellipse 50" cx="232.75" cy="232.75" r="232.75" transform="translate(332.25 549.5)" fill="url(#linear-gradient)"/>
    <circle id="Ellipse_51" data-name="Ellipse 51" cx="142" cy="142" r="142" transform="translate(877 93)" fill="url(#linear-gradient)"/>
    <path id="Path_33" data-name="Path 33" d="M211.5,160.5A211.113,211.113,0,0,1,282,172.552v398.9A211.113,211.113,0,0,1,211.5,583.5C94.692,583.5,0,488.808,0,372S94.692,160.5,211.5,160.5Z" transform="translate(1638 84)" fill="url(#linear-gradient)"/>
    <path id="Path_34" data-name="Path 34" d="M1920,1080c-77.387-196.933-162.284-256.146-229-271-38.063-8.474-62.127-.712-118-19-96.9-31.716-157.411-98.561-181-128-68.311-85.252-47.628-132.2-94-200-38.29-55.98-116.625-117.877-294-137v755Z" transform="translate(-1004)" fill="url(#linear-gradient)"/>
    <circle id="Ellipse_52" data-name="Ellipse 52" cx="81.5" cy="81.5" r="81.5" transform="translate(1236 377)" fill="url(#linear-gradient)"/>
    <circle id="Ellipse_53" data-name="Ellipse 53" cx="114.5" cy="114.5" r="114.5" transform="translate(1305 190)" fill="url(#linear-gradient)"/>
    <circle id="Ellipse_54" data-name="Ellipse 54" cx="150.5" cy="150.5" r="150.5" transform="translate(1429 703)" fill="url(#linear-gradient)"/>
    <rect id="Rectangle_25" data-name="Rectangle 25" width="1920" height="1080" fill="url(#linear-gradient)"/>
    <circle id="Ellipse_55" data-name="Ellipse 55" cx="118" cy="118" r="118" transform="translate(849 495)" fill="url(#linear-gradient)"/>
    <circle id="Ellipse_56" data-name="Ellipse 56" cx="81.5" cy="81.5" r="81.5" transform="translate(302 495)" fill="url(#linear-gradient)"/>
    <circle id="Ellipse_57" data-name="Ellipse 57" cx="232.75" cy="232.75" r="232.75" transform="translate(332.25 549.5)" fill="url(#linear-gradient)"/>
    <circle id="Ellipse_58" data-name="Ellipse 58" cx="142" cy="142" r="142" transform="translate(877 93)" fill="url(#linear-gradient)"/>
    <path id="Path_35" data-name="Path 35" d="M211.5,160.5A211.113,211.113,0,0,1,282,172.552v398.9A211.113,211.113,0,0,1,211.5,583.5C94.692,583.5,0,488.808,0,372S94.692,160.5,211.5,160.5Z" transform="translate(1638 84)" fill="url(#linear-gradient)"/>
    <path id="Path_36" data-name="Path 36" d="M1920,1080c-77.387-196.933-162.284-256.146-229-271-38.063-8.474-62.127-.712-118-19-96.9-31.716-157.411-98.561-181-128-68.311-85.252-47.628-132.2-94-200-38.29-55.98-116.625-117.877-294-137v755Z" transform="translate(-1004)" fill="url(#linear-gradient)"/>
    <circle id="Ellipse_59" data-name="Ellipse 59" cx="81.5" cy="81.5" r="81.5" transform="translate(1236 377)" fill="url(#linear-gradient)"/>
    <circle id="Ellipse_60" data-name="Ellipse 60" cx="114.5" cy="114.5" r="114.5" transform="translate(1305 190)" fill="url(#linear-gradient)"/>
    <circle id="Ellipse_61" data-name="Ellipse 61" cx="150.5" cy="150.5" r="150.5" transform="translate(1429 703)" fill="url(#linear-gradient)"/>
    <rect id="Rectangle_26" data-name="Rectangle 26" width="1920" height="1080" fill="url(#linear-gradient)"/>
    <circle id="Ellipse_62" data-name="Ellipse 62" cx="118" cy="118" r="118" transform="translate(849 495)" fill="url(#linear-gradient)"/>
    <circle id="Ellipse_63" data-name="Ellipse 63" cx="81.5" cy="81.5" r="81.5" transform="translate(302 495)" fill="url(#linear-gradient)"/>
    <circle id="Ellipse_64" data-name="Ellipse 64" cx="232.75" cy="232.75" r="232.75" transform="translate(332.25 549.5)" fill="url(#linear-gradient)"/>
    <circle id="Ellipse_65" data-name="Ellipse 65" cx="142" cy="142" r="142" transform="translate(877 93)" fill="url(#linear-gradient)"/>
    <path id="Path_37" data-name="Path 37" d="M211.5,160.5A211.113,211.113,0,0,1,282,172.552v398.9A211.113,211.113,0,0,1,211.5,583.5C94.692,583.5,0,488.808,0,372S94.692,160.5,211.5,160.5Z" transform="translate(1638 84)" fill="url(#linear-gradient)"/>
    <path id="Path_38" data-name="Path 38" d="M1920,1080c-77.387-196.933-162.284-256.146-229-271-38.063-8.474-62.127-.712-118-19-96.9-31.716-157.411-98.561-181-128-68.311-85.252-47.628-132.2-94-200-38.29-55.98-116.625-117.877-294-137v755Z" transform="translate(-1004)" fill="url(#linear-gradient)"/>
    <circle id="Ellipse_66" data-name="Ellipse 66" cx="81.5" cy="81.5" r="81.5" transform="translate(1236 377)" fill="url(#linear-gradient)"/>
    <circle id="Ellipse_67" data-name="Ellipse 67" cx="114.5" cy="114.5" r="114.5" transform="translate(1305 190)" fill="url(#linear-gradient)"/>
    <circle id="Ellipse_68" data-name="Ellipse 68" cx="150.5" cy="150.5" r="150.5" transform="translate(1429 703)" fill="url(#linear-gradient)"/>
    <rect id="Rectangle_27" data-name="Rectangle 27" width="1920" height="1080" fill="url(#linear-gradient)"/>
    <circle id="Ellipse_96" data-name="Ellipse 96" cx="935.25" cy="935.25" r="935.25" transform="translate(-913.75 43.5)" fill="url(#linear-gradient)"/>
    <ellipse id="Ellipse_71" data-name="Ellipse 71" cx="1803.25" cy="1226.75" rx="1803.25" ry="1226.75" transform="translate(-289.75 158.5)" fill="url(#linear-gradient)"/>
  </g>
</svg>
