<svg xmlns="http://www.w3.org/2000/svg" xmlns:xlink="http://www.w3.org/1999/xlink" width="1920" height="1080" viewBox="0 0 1920 1080">
  <defs>
    <linearGradient id="linear-gradient" x1="-0.041" y1="-0.038" x2="1.108" y2="1.104" gradientUnits="objectBoundingBox">
      <stop offset="0" stop-color="#fc00ff"/>
      <stop offset="1" stop-color="#00dbd3"/>
    </linearGradient>
    <linearGradient id="linear-gradient-2" x1="1.09" y1="1.005" x2="-1.004" y2="-0.787" xlink:href="#linear-gradient"/>
    <linearGradient id="linear-gradient-3" x1="-0.078" y1="0.148" x2="1.58" y2="1.157" xlink:href="#linear-gradient"/>
    <linearGradient id="linear-gradient-4" x1="-0.131" y1="0.057" x2="1.533" y2="1.226" xlink:href="#linear-gradient"/>
    <linearGradient id="linear-gradient-5" x1="-0.682" y1="0.025" x2="2.108" y2="1.405" xlink:href="#linear-gradient"/>
    <linearGradient id="linear-gradient-6" x1="1.285" y1="1.131" x2="-0.378" y2="-0.206" xlink:href="#linear-gradient"/>
    <linearGradient id="linear-gradient-7" x1="2.294" y1="1.9" x2="-2.021" y2="-1.467" xlink:href="#linear-gradient"/>
    <linearGradient id="linear-gradient-8" x1="1.329" y1="0.95" x2="-0.54" y2="-0.064" xlink:href="#linear-gradient"/>
    <clipPath id="clip-Web_1920_2">
      <rect width="1920" height="1080"/>
    </clipPath>
  </defs>
  <g id="Web_1920_2" data-name="Web 1920 – 2" clip-path="url(#clip-Web_1920_2)">
    <rect width="1920" height="1080" fill="#fff"/>
    <g id="Group_2" data-name="Group 2">
      <rect id="Rectangle_9" data-name="Rectangle 9" width="1920" height="1080" fill="url(#linear-gradient)"/>
      <circle id="Ellipse_6" data-name="Ellipse 6" cx="118" cy="118" r="118" transform="translate(700 99)" fill="url(#linear-gradient-2)"/>
      <circle id="Ellipse_7" data-name="Ellipse 7" cx="142" cy="142" r="142" transform="translate(517 419)" fill="url(#linear-gradient-3)"/>
      <circle id="Ellipse_8" data-name="Ellipse 8" cx="232.75" cy="232.75" r="232.75" transform="translate(1112.25 374.5)" fill="url(#linear-gradient-4)"/>
      <path id="Path_5" data-name="Path 5" d="M70.5,160.5A211.113,211.113,0,0,0,0,172.552v398.9A211.113,211.113,0,0,0,70.5,583.5C187.308,583.5,282,488.808,282,372S187.308,160.5,70.5,160.5Z" fill="url(#linear-gradient-5)"/>
      <path id="Path_6" data-name="Path 6" d="M1004,1080c77.387-196.933,162.284-256.146,229-271,38.063-8.474,62.127-.712,118-19,96.9-31.716,157.411-98.561,181-128,68.311-85.252,47.628-132.2,94-200,38.29-55.98,116.625-117.877,294-137v755Z" fill="url(#linear-gradient-6)"/>
      <circle id="Ellipse_9" data-name="Ellipse 9" cx="81.5" cy="81.5" r="81.5" transform="translate(315 749)" fill="url(#linear-gradient-7)"/>
      <circle id="Ellipse_10" data-name="Ellipse 10" cx="81.5" cy="81.5" r="81.5" transform="translate(1509 41)" fill="url(#linear-gradient-8)"/>
    </g>
    <path id="Path_8" data-name="Path 8" d="M1990.037,893.708s275.971-132.577,538.3-82.456,642.878-32.9,642.878-32.9,311.86-76.506,562.571,0S4140.423,975.08,4140.423,975.08v104.79L1989.69,1080Z" transform="translate(-2076.541 -25.657)" fill="#ece9e6" opacity="0.67"/>
    <path id="Path_4" data-name="Path 4" d="M1990.009,893.708s253.774-132.577,495-82.456,591.171-32.9,591.171-32.9,286.777-76.506,517.323,0S3967.438,975.08,3967.438,975.08v104.79L1989.69,1080Z" transform="translate(-2021 59)" fill="#ece9e6"/>
    <path id="Path_7" data-name="Path 7" d="M1990.018,896.67s260.889-135.206,508.878-84.092,607.744-33.554,607.744-33.554,294.816-78.024,531.825,0,384.417,200.633,384.417,200.633v106.869l-2033.193.132Z" transform="translate(-2077 19.343)" fill="#ece9e6" opacity="0.79"/>
  </g>
</svg>
