<svg xmlns="http://www.w3.org/2000/svg" viewBox="0 0 1080 1080"><defs><style>.cls-1{fill:#fff;}.cls-2{fill:none;stroke:#fff;stroke-linecap:round;stroke-miterlimit:10;stroke-width:30px;}</style></defs><title>email_white</title><g id="Réteg_2" data-name="Réteg 2"><g id="Réteg_1" data-name="Réteg 1"><path class="cls-1" d="M760,404V676.64H320V404H760m9.94-30H310.06A20.06,20.06,0,0,0,290,394V686.58a20.06,20.06,0,0,0,20.06,20.06H769.94A20.06,20.06,0,0,0,790,686.58V394A20.06,20.06,0,0,0,769.94,374Z"/><line class="cls-2" x1="310" y1="392" x2="540.31" y2="616.82"/><line class="cls-2" x1="771" y1="393" x2="540.31" y2="616.82"/><line class="cls-2" x1="770" y1="686" x2="656" y2="564"/><line class="cls-2" x1="307" y1="684" x2="425" y2="559"/><path class="cls-1" d="M540,70A470.14,470.14,0,0,1,722.92,973.09,470.13,470.13,0,0,1,357.08,106.91,466.93,466.93,0,0,1,540,70m0-70C241.77,0,0,241.77,0,540s241.77,540,540,540,540-241.77,540-540S838.23,0,540,0Z"/></g></g></svg>