<svg xmlns="http://www.w3.org/2000/svg" xmlns:xlink="http://www.w3.org/1999/xlink" viewBox="0 0 1080 1080"><defs><style>.cls-1{fill:url(#Névtelen_színátmenet_7);}.cls-2{fill:none;stroke:#000;stroke-linecap:round;stroke-miterlimit:10;stroke-width:30px;}</style><linearGradient id="Névtelen_színátmenet_7" x1="-20.76" y1="176.08" x2="1093.35" y2="899.11" gradientUnits="userSpaceOnUse"><stop offset="0" stop-color="#ffafbd"/><stop offset="1" stop-color="#ffc3a0"/></linearGradient></defs><title>email</title><g id="Réteg_2" data-name="Réteg 2"><g id="Réteg_1" data-name="Réteg 1"><circle class="cls-1" cx="540" cy="540" r="540"/><path d="M760,404V676.64H320V404H760m9.94-30H310.06A20.06,20.06,0,0,0,290,394V686.58a20.06,20.06,0,0,0,20.06,20.06H769.94A20.06,20.06,0,0,0,790,686.58V394A20.06,20.06,0,0,0,769.94,374Z"/><line class="cls-2" x1="310" y1="392" x2="540.31" y2="616.82"/><line class="cls-2" x1="771" y1="393" x2="540.31" y2="616.82"/><line class="cls-2" x1="770" y1="686" x2="656" y2="564"/><line class="cls-2" x1="307" y1="684" x2="425" y2="559"/></g></g></svg>