<svg xmlns="http://www.w3.org/2000/svg" viewBox="0 0 1080 1080"><defs><style>.cls-1{fill:#fff;}</style></defs><title>facebook_white_2</title><g id="Réteg_2" data-name="Réteg 2"><g id="Réteg_1" data-name="Réteg 1"><path class="cls-1" d="M540,70A470.14,470.14,0,0,1,722.92,973.09,470.13,470.13,0,0,1,357.08,106.91,467,467,0,0,1,540,70m0-70C241.77,0,0,241.77,0,540s241.77,540,540,540,540-241.77,540-540S838.23,0,540,0Z"/><path id="f" class="cls-1" d="M580.08,790V561H655l11.22-87H580.08V416.79c0-25.92,7.2-43.59,44.37-43.59l44.94,0V293.51c-8-1.08-35.69-3.51-67.84-3.51-67.12,0-113.08,41.51-113.08,117.74v63.93H410.61V561h77.86V790Z"/></g></g></svg>