<svg xmlns="http://www.w3.org/2000/svg" viewBox="0 0 1080 1080"><defs><style>.cls-1{fill:#fff;}</style></defs><title>twitter_white_1</title><g id="Réteg_2" data-name="Réteg 2"><g id="Réteg_1" data-name="Réteg 1"><path class="cls-1" d="M540,70A470.14,470.14,0,0,1,722.92,973.09,470.13,470.13,0,0,1,357.08,106.91,467,467,0,0,1,540,70m0-70C241.77,0,0,241.77,0,540s241.77,540,540,540,540-241.77,540-540S838.23,0,540,0Z"/><g id="layer1"><path id="path3611" class="cls-1" d="M447.25,743.18c188.69,0,291.87-156.32,291.87-291.88q0-6.66-.29-13.26A208.59,208.59,0,0,0,790,384.92a204.55,204.55,0,0,1-58.91,16.15,102.94,102.94,0,0,0,45.11-56.74,205.72,205.72,0,0,1-65.14,24.9,102.67,102.67,0,0,0-174.81,93.55A291.26,291.26,0,0,1,324.8,355.6a102.67,102.67,0,0,0,31.76,137,101.83,101.83,0,0,1-46.46-12.83c0,.43,0,.85,0,1.31a102.62,102.62,0,0,0,82.3,100.57,102.41,102.41,0,0,1-46.33,1.76,102.69,102.69,0,0,0,95.83,71.25,205.79,205.79,0,0,1-127.41,43.91A208.28,208.28,0,0,1,290,697.1a290.38,290.38,0,0,0,157.25,46.08"/></g></g></g></svg>