<svg xmlns="http://www.w3.org/2000/svg" viewBox="0 0 1080 1080"><defs><style>.cls-1{fill:red;}.cls-2{fill:#fff;}</style></defs><title>youtube_2</title><g id="Réteg_2" data-name="Réteg 2"><g id="Réteg_1" data-name="Réteg 1"><circle class="cls-1" cx="540" cy="540" r="540"/><g id="g5"><path id="path7" class="cls-2" d="M779.7,419.74a62.62,62.62,0,0,0-44.07-44.07C696.51,365,540,365,540,365s-156.51,0-195.63,10.3a63.89,63.89,0,0,0-44.07,44.48C290,458.86,290,540,290,540s0,81.55,10.3,120.26a62.62,62.62,0,0,0,44.07,44.07C383.9,715,540,715,540,715s156.51,0,195.63-10.3a62.62,62.62,0,0,0,44.07-44.07C790,621.55,790,540.41,790,540.41S790.41,458.86,779.7,419.74Z"/><polygon id="polygon9" class="cls-1" points="618.18 540 488.04 465.04 488.04 614.96 618.18 540"/></g></g></g></svg>